<svg xmlns="http://www.w3.org/2000/svg" width="1200" height="630" viewBox="0 0 1200 630">
  <rect width="1200" height="630" fill="#0e1013" />
  <text x="80" y="130" font-family="-apple-system, Segoe UI, Roboto, sans-serif" font-size="66" font-weight="800" fill="#e7eaef" letter-spacing="-1">Time Zone Meeting Planner</text>
  <text x="80" y="185" font-family="-apple-system, Segoe UI, Roboto, sans-serif" font-size="28" fill="#98a1ad">Find an hour that works for everyone — daylight saving handled</text>
  <g font-family="ui-monospace, Menlo, Consolas, monospace" font-size="22" text-anchor="middle">
    <g>
      <text x="120" y="285" text-anchor="start" font-family="-apple-system,Segoe UI,sans-serif" fill="#e7eaef" font-size="24" font-weight="700">Sydney</text>
      <text x="120" y="365" text-anchor="start" font-family="-apple-system,Segoe UI,sans-serif" fill="#e7eaef" font-size="24" font-weight="700">London</text>
      <text x="120" y="445" text-anchor="start" font-family="-apple-system,Segoe UI,sans-serif" fill="#e7eaef" font-size="24" font-weight="700">New York</text>
    </g>
    <g>
      <!-- Sydney row -->
      <rect x="300" y="255" width="110" height="46" fill="#1f4735"/><text x="355" y="285" fill="#a7e9bf">18</text>
      <rect x="414" y="255" width="110" height="46" fill="#4a3c1a"/><text x="469" y="285" fill="#efce8b">19</text>
      <rect x="528" y="255" width="110" height="46" fill="#22262e"/><text x="583" y="285" fill="#8a94a1">20</text>
      <rect x="642" y="255" width="110" height="46" fill="#22262e"/><text x="697" y="285" fill="#8a94a1">21</text>
      <rect x="756" y="255" width="110" height="46" fill="#1b2036"/><text x="811" y="285" fill="#99a2cf">23</text>
      <!-- London row -->
      <rect x="300" y="335" width="110" height="46" fill="#1f4735"/><text x="355" y="365" fill="#a7e9bf">09</text>
      <rect x="414" y="335" width="110" height="46" fill="#1f4735"/><text x="469" y="365" fill="#a7e9bf">10</text>
      <rect x="528" y="335" width="110" height="46" fill="#1f4735"/><text x="583" y="365" fill="#a7e9bf">11</text>
      <rect x="642" y="335" width="110" height="46" fill="#1f4735"/><text x="697" y="365" fill="#a7e9bf">12</text>
      <rect x="756" y="335" width="110" height="46" fill="#1f4735"/><text x="811" y="365" fill="#a7e9bf">14</text>
      <!-- NY row -->
      <rect x="300" y="415" width="110" height="46" fill="#4a3c1a"/><text x="355" y="445" fill="#efce8b">04</text>
      <rect x="414" y="415" width="110" height="46" fill="#4a3c1a"/><text x="469" y="445" fill="#efce8b">05</text>
      <rect x="528" y="415" width="110" height="46" fill="#4a3c1a"/><text x="583" y="445" fill="#efce8b">06</text>
      <rect x="642" y="415" width="110" height="46" fill="#4a3c1a"/><text x="697" y="445" fill="#efce8b">07</text>
      <rect x="756" y="415" width="110" height="46" fill="#1f4735"/><text x="811" y="445" fill="#a7e9bf">09</text>
    </g>
  </g>
  <text x="80" y="560" font-family="-apple-system, Segoe UI, Roboto, sans-serif" font-size="24" fill="#7f9cff">Shareable link · no sign-up · runs in your browser</text>
</svg>
